<svg width="75" height="19" viewBox="0 0 75 19" fill="none" xmlns="http://www.w3.org/2000/svg">
<path fill-rule="evenodd" clip-rule="evenodd" d="M0 5.5C0 4.94772 0.447715 4.5 1 4.5H20C20.5523 4.5 21 4.94772 21 5.5C21 6.05228 20.5523 6.5 20 6.5H1C0.447715 6.5 0 6.05228 0 5.5ZM0 13.5C0 12.9477 0.447715 12.5 1 12.5H20C20.5523 12.5 21 12.9477 21 13.5C21 14.0523 20.5523 14.5 20 14.5H1C0.447715 14.5 0 14.0523 0 13.5Z" fill="white"/>
<path fill-rule="evenodd" clip-rule="evenodd" d="M62.1032 1.32921C63.1061 0.913775 64.1811 0.699951 65.2667 0.699951C66.3523 0.699951 67.4272 0.913775 68.4302 1.32921C69.4331 1.74465 70.3445 2.35357 71.1121 3.1212C71.8797 3.88883 72.4886 4.80014 72.9041 5.8031C73.3195 6.80606 73.5333 7.88102 73.5333 8.96662C73.5333 10.0522 73.3195 11.1272 72.9041 12.1301C72.591 12.8858 72.1682 13.5895 71.6503 14.2189L74.3657 16.9343C74.6781 17.2467 74.6781 17.7532 74.3657 18.0656C74.0533 18.3781 73.5467 18.3781 73.2343 18.0656L70.519 15.3503C69.8896 15.8681 69.1859 16.291 68.4302 16.604C67.4272 17.0195 66.3523 17.2333 65.2667 17.2333C64.1811 17.2333 63.1061 17.0195 62.1032 16.604C61.1002 16.1886 60.1889 15.5797 59.4213 14.812C58.6536 14.0444 58.0447 13.1331 57.6293 12.1301C57.2138 11.1272 57 10.0522 57 8.96662C57 7.88102 57.2138 6.80606 57.6293 5.8031C58.0447 4.80014 58.6536 3.88883 59.4213 3.1212C60.1889 2.35357 61.1002 1.74465 62.1032 1.32921ZM65.2667 2.29995C64.3912 2.29995 63.5243 2.47239 62.7154 2.80742C61.9066 3.14245 61.1717 3.63352 60.5526 4.25257C59.9336 4.87163 59.4425 5.60656 59.1075 6.4154C58.7724 7.22423 58.6 8.09114 58.6 8.96662C58.6 9.8421 58.7724 10.709 59.1075 11.5178C59.4425 12.3267 59.9336 13.0616 60.5526 13.6807C61.1717 14.2997 61.9066 14.7908 62.7154 15.1258C63.5243 15.4608 64.3912 15.6333 65.2667 15.6333C66.1421 15.6333 67.0091 15.4608 67.8179 15.1258C68.6267 14.7908 69.3617 14.2997 69.9807 13.6807C70.5998 13.0616 71.0908 12.3267 71.4259 11.5178C71.7609 10.709 71.9333 9.8421 71.9333 8.96662C71.9333 8.09114 71.7609 7.22423 71.4259 6.4154C71.0908 5.60656 70.5998 4.87163 69.9807 4.25257C69.3617 3.63352 68.6267 3.14245 67.8179 2.80742C67.0091 2.47239 66.1421 2.29995 65.2667 2.29995Z" fill="white"/>
</svg>
