<svg width="94" height="21" viewBox="0 0 94 21" fill="none" xmlns="http://www.w3.org/2000/svg">
<circle cx="84.7686" cy="10.5" r="9" fill="#49D0FF"/>
<path d="M87.6402 6.58V7.012L84.0162 14.5H82.2522L85.4682 8.044H82.0722V6.58H87.6402Z" fill="white"/>
<path fill-rule="evenodd" clip-rule="evenodd" d="M8.2995 2.29995C7.73948 2.29995 7.19868 2.52728 6.7971 2.93795C6.39493 3.34923 6.16589 3.91077 6.16589 4.49995V5.69995H10.4331V4.49995C10.4331 3.91077 10.2041 3.34923 9.80189 2.93795C9.40031 2.52728 8.85951 2.29995 8.2995 2.29995ZM12.0331 5.69995V4.49995C12.0331 3.49783 11.644 2.53325 10.9459 1.81931C10.2471 1.10476 9.29556 0.699951 8.2995 0.699951C7.30343 0.699951 6.35188 1.10476 5.65315 1.81931C4.955 2.53325 4.56589 3.49783 4.56589 4.49995V5.69995H2.75606M4.56589 7.29995H2.75596C2.59211 7.29993 2.42952 7.33611 2.27934 7.40669C2.1291 7.47729 1.99409 7.58098 1.88434 7.71178C1.77454 7.84264 1.69277 7.99739 1.64572 8.16579C1.59868 8.33419 1.58772 8.51136 1.6138 8.68486C1.61379 8.68482 1.6138 8.6849 1.6138 8.68486L2.84102 16.8369C2.91982 17.3608 3.17894 17.8351 3.56681 18.1754C3.95423 18.5153 4.44479 18.6999 4.94932 18.7C4.94931 18.7 4.94933 18.7 4.94932 18.7H11.6497C12.1543 18.7001 12.6453 18.5156 13.0329 18.1756C13.4209 17.8353 13.6801 17.361 13.7589 16.837L14.9862 8.68498C15.0123 8.51145 15.0013 8.33423 14.9542 8.16579C14.9072 7.99739 14.8254 7.84264 14.7156 7.71178C14.6059 7.58098 14.4709 7.47729 14.3206 7.40669C14.1705 7.33611 14.008 7.29993 13.8441 7.29995H12.0331V9.49995C12.0331 9.94178 11.6749 10.3 11.2331 10.3C10.7913 10.3 10.4331 9.94178 10.4331 9.49995V7.29995H6.16589V9.49995C6.16589 9.94178 5.80772 10.3 5.36589 10.3C4.92406 10.3 4.56589 9.94178 4.56589 9.49995V7.29995ZM12.0331 5.69995H13.8439C13.8439 5.69995 13.844 5.69995 13.8439 5.69995C14.244 5.69992 14.6389 5.78838 15.0011 5.95862C15.3633 6.12883 15.6838 6.37644 15.9413 6.68333C16.1988 6.99016 16.3874 7.34914 16.4952 7.73528C16.6031 8.12139 16.628 8.52642 16.5684 8.92292L15.3411 17.0749C15.3411 17.075 15.3411 17.0749 15.3411 17.0749C15.2069 17.9677 14.7639 18.7856 14.088 19.3785C13.4116 19.9718 12.5468 20.3002 11.6497 20.2999C11.6496 20.2999 11.6498 20.2999 11.6497 20.2999H4.94932C4.05238 20.2999 3.18774 19.9714 2.51155 19.3781C1.83582 18.7852 1.39311 17.9676 1.25885 17.075C1.25885 17.075 1.25886 17.0751 1.25885 17.075L0.0316256 8.92304C-0.0280014 8.52654 -0.00313763 8.12139 0.104732 7.73528C0.212611 7.34914 0.401203 6.99016 0.658659 6.68333C0.916162 6.37644 1.23663 6.12883 1.59884 5.95862C1.96108 5.78838 2.35596 5.69992 2.75606 5.69995" fill="white"/>
<path d="M26.925 6.92V15.5H25.17V9L23.545 9.52L23.129 7.973L26.34 6.92H26.925ZM32.1428 6.92V15.5H30.3878V9L28.7628 9.52L28.3468 7.973L31.5578 6.92H32.1428ZM44.0071 13.212C44.0071 13.706 43.8685 14.1393 43.5911 14.512C43.3225 14.876 42.9455 15.1577 42.4601 15.357C41.9748 15.5563 41.4201 15.656 40.7961 15.656C40.1721 15.656 39.6131 15.5563 39.1191 15.357C38.6338 15.1577 38.2525 14.876 37.9751 14.512C37.7065 14.1393 37.5721 13.706 37.5721 13.212C37.5721 12.224 38.1355 11.5047 39.2621 11.054C38.3955 10.5513 37.9621 9.87967 37.9621 9.039C37.9621 8.32833 38.2265 7.77367 38.7551 7.375C39.2925 6.96767 39.9728 6.764 40.7961 6.764C41.6195 6.764 42.2955 6.96767 42.8241 7.375C43.3615 7.77367 43.6301 8.32833 43.6301 9.039C43.6301 9.88833 43.2011 10.56 42.3431 11.054C43.4525 11.5133 44.0071 12.2327 44.0071 13.212ZM40.7961 8.181C40.4495 8.181 40.1635 8.26333 39.9381 8.428C39.7128 8.59267 39.6001 8.82233 39.6001 9.117C39.6001 9.377 39.6955 9.59367 39.8861 9.767C40.0855 9.94033 40.3888 10.1223 40.7961 10.313C41.2035 10.1223 41.5025 9.94033 41.6931 9.767C41.8925 9.59367 41.9921 9.37267 41.9921 9.104C41.9921 8.818 41.8795 8.59267 41.6541 8.428C41.4288 8.26333 41.1428 8.181 40.7961 8.181ZM40.7961 14.226C41.2728 14.226 41.6368 14.1263 41.8881 13.927C42.1395 13.7277 42.2651 13.4677 42.2651 13.147C42.2651 12.8177 42.1438 12.5533 41.9011 12.354C41.6585 12.1547 41.2901 11.9683 40.7961 11.795C40.3021 11.977 39.9338 12.1677 39.6911 12.367C39.4485 12.5663 39.3271 12.8263 39.3271 13.147C39.3271 13.4677 39.4528 13.7277 39.7041 13.927C39.9555 14.1263 40.3195 14.226 40.7961 14.226ZM48.2697 6.764C48.833 6.764 49.353 6.89833 49.8297 7.167C50.315 7.427 50.7007 7.791 50.9867 8.259C51.2814 8.727 51.4287 9.25567 51.4287 9.845C51.4287 10.3217 51.3334 10.7463 51.1427 11.119C50.9607 11.4917 50.6617 11.964 50.2457 12.536L48.1137 15.5H46.0337L48.0227 12.744H47.9577C47.481 12.744 47.0217 12.6227 46.5797 12.38C46.1464 12.1287 45.7954 11.782 45.5267 11.34C45.258 10.8893 45.1237 10.3867 45.1237 9.832C45.1237 9.25133 45.2667 8.727 45.5527 8.259C45.8387 7.791 46.2244 7.427 46.7097 7.167C47.195 6.89833 47.715 6.764 48.2697 6.764ZM48.2697 11.275C48.6684 11.275 49.002 11.1363 49.2707 10.859C49.548 10.5817 49.6867 10.2393 49.6867 9.832C49.6867 9.42467 49.548 9.08233 49.2707 8.805C49.002 8.519 48.6684 8.376 48.2697 8.376C47.8797 8.376 47.546 8.51467 47.2687 8.792C46.9914 9.06933 46.8527 9.416 46.8527 9.832C46.8527 10.2393 46.9914 10.5817 47.2687 10.859C47.546 11.1363 47.8797 11.275 48.2697 11.275ZM55.5695 6.764C56.1328 6.764 56.6528 6.89833 57.1295 7.167C57.6148 7.427 58.0005 7.791 58.2865 8.259C58.5812 8.727 58.7285 9.25567 58.7285 9.845C58.7285 10.3217 58.6332 10.7463 58.4425 11.119C58.2605 11.4917 57.9615 11.964 57.5455 12.536L55.4135 15.5H53.3335L55.3225 12.744H55.2575C54.7808 12.744 54.3215 12.6227 53.8795 12.38C53.4462 12.1287 53.0952 11.782 52.8265 11.34C52.5578 10.8893 52.4235 10.3867 52.4235 9.832C52.4235 9.25133 52.5665 8.727 52.8525 8.259C53.1385 7.791 53.5242 7.427 54.0095 7.167C54.4948 6.89833 55.0148 6.764 55.5695 6.764ZM55.5695 11.275C55.9682 11.275 56.3018 11.1363 56.5705 10.859C56.8478 10.5817 56.9865 10.2393 56.9865 9.832C56.9865 9.42467 56.8478 9.08233 56.5705 8.805C56.3018 8.519 55.9682 8.376 55.5695 8.376C55.1795 8.376 54.8458 8.51467 54.5685 8.792C54.2912 9.06933 54.1525 9.416 54.1525 9.832C54.1525 10.2393 54.2912 10.5817 54.5685 10.859C54.8458 11.1363 55.1795 11.275 55.5695 11.275ZM64.0819 14.161H63.0679V12.757H64.0819V11.938H63.0679V10.456H64.0819V6.92H67.3709C68.1855 6.92 68.8485 7.14533 69.3599 7.596C69.8799 8.04667 70.1399 8.65767 70.1399 9.429C70.1399 9.94033 70.0185 10.3867 69.7759 10.768C69.5419 11.1493 69.2125 11.4397 68.7879 11.639C68.3719 11.8383 67.8995 11.938 67.3709 11.938H65.8369V12.757H69.1129V14.161H65.8369V15.5H64.0819V14.161ZM67.2539 10.456C67.5919 10.456 67.8649 10.3693 68.0729 10.196C68.2809 10.014 68.3849 9.76267 68.3849 9.442C68.3849 9.12133 68.2809 8.87 68.0729 8.688C67.8649 8.49733 67.5919 8.402 67.2539 8.402H65.8369V10.456H67.2539Z" fill="#8C8F96"/>
</svg>
