<svg width="17" height="21" viewBox="0 0 17 21" fill="none" xmlns="http://www.w3.org/2000/svg">
<path fill-rule="evenodd" clip-rule="evenodd" d="M8.2995 2.29995C7.73948 2.29995 7.19868 2.52728 6.7971 2.93795C6.39493 3.34923 6.16589 3.91077 6.16589 4.49995V5.69995H10.4331V4.49995C10.4331 3.91077 10.2041 3.34923 9.80189 2.93795C9.40031 2.52728 8.85951 2.29995 8.2995 2.29995ZM12.0331 5.69995V4.49995C12.0331 3.49783 11.644 2.53325 10.9459 1.81931C10.2471 1.10476 9.29556 0.699951 8.2995 0.699951C7.30343 0.699951 6.35188 1.10476 5.65315 1.81931C4.955 2.53325 4.56589 3.49783 4.56589 4.49995V5.69995H2.75606M4.56589 7.29995H2.75596C2.59211 7.29993 2.42952 7.33611 2.27934 7.40669C2.1291 7.47729 1.99409 7.58098 1.88434 7.71178C1.77454 7.84264 1.69277 7.99739 1.64572 8.16579C1.59868 8.33419 1.58772 8.51136 1.6138 8.68486C1.61379 8.68482 1.6138 8.6849 1.6138 8.68486L2.84102 16.8369C2.91982 17.3608 3.17894 17.8351 3.56681 18.1754C3.95423 18.5153 4.44479 18.6999 4.94932 18.7C4.94931 18.7 4.94933 18.7 4.94932 18.7H11.6497C12.1543 18.7001 12.6453 18.5156 13.0329 18.1756C13.4209 17.8353 13.6801 17.361 13.7589 16.837L14.9862 8.68498C15.0123 8.51145 15.0013 8.33423 14.9542 8.16579C14.9072 7.99739 14.8254 7.84264 14.7156 7.71178C14.6059 7.58098 14.4709 7.47729 14.3206 7.40669C14.1705 7.33611 14.008 7.29993 13.8441 7.29995H12.0331V9.49995C12.0331 9.94178 11.6749 10.3 11.2331 10.3C10.7913 10.3 10.4331 9.94178 10.4331 9.49995V7.29995H6.16589V9.49995C6.16589 9.94178 5.80772 10.3 5.36589 10.3C4.92406 10.3 4.56589 9.94178 4.56589 9.49995V7.29995ZM12.0331 5.69995H13.8439C13.8439 5.69995 13.844 5.69995 13.8439 5.69995C14.244 5.69992 14.6389 5.78838 15.0011 5.95862C15.3633 6.12883 15.6838 6.37644 15.9413 6.68333C16.1988 6.99016 16.3874 7.34914 16.4952 7.73528C16.6031 8.12139 16.628 8.52642 16.5684 8.92292L15.3411 17.0749C15.3411 17.075 15.3411 17.0749 15.3411 17.0749C15.2069 17.9677 14.7639 18.7856 14.088 19.3785C13.4116 19.9718 12.5468 20.3002 11.6497 20.2999C11.6496 20.2999 11.6498 20.2999 11.6497 20.2999H4.94932C4.05238 20.2999 3.18774 19.9714 2.51155 19.3781C1.83582 18.7852 1.39311 17.9676 1.25885 17.075C1.25885 17.075 1.25886 17.0751 1.25885 17.075L0.0316256 8.92304C-0.0280014 8.52654 -0.00313763 8.12139 0.104732 7.73528C0.212611 7.34914 0.401203 6.99016 0.658659 6.68333C0.916162 6.37644 1.23663 6.12883 1.59884 5.95862C1.96108 5.78838 2.35596 5.69992 2.75606 5.69995" fill="white"/>
</svg>
