<svg width="13" height="19" viewBox="0 0 13 19" fill="none" xmlns="http://www.w3.org/2000/svg">
<path fill-rule="evenodd" clip-rule="evenodd" d="M3.55075 1.96703C4.39017 1.15305 5.52356 0.699951 6.70039 0.699951C7.87722 0.699951 9.01061 1.15305 9.85003 1.96703C10.6903 2.78182 11.1671 3.89226 11.1671 5.05551C11.1671 6.21875 10.6903 7.32919 9.85003 8.14398C9.01061 8.95797 7.87722 9.41106 6.70039 9.41106C5.52356 9.41106 4.39017 8.95797 3.55075 8.14398C2.71049 7.32919 2.23372 6.21875 2.23372 5.05551C2.23372 3.89226 2.71049 2.78182 3.55075 1.96703ZM6.70039 2.29995C5.9323 2.29995 5.20043 2.59606 4.66458 3.11567C4.12957 3.63447 3.83372 4.33277 3.83372 5.05551C3.83372 5.77824 4.12957 6.47655 4.66458 6.99534C5.20043 7.51495 5.9323 7.81106 6.70039 7.81106C7.46849 7.81106 8.20035 7.51495 8.7362 6.99534C9.27121 6.47655 9.56706 5.77824 9.56706 5.05551C9.56706 4.33277 9.27121 3.63447 8.7362 3.11567C8.20035 2.59606 7.46849 2.29995 6.70039 2.29995ZM4.86706 12.9666C4.09896 12.9666 3.3671 13.2627 2.83125 13.7823C2.29624 14.3011 2.00039 14.9994 2.00039 15.7222V17.5C2.00039 17.9418 1.64222 18.2999 1.20039 18.2999C0.758563 18.2999 0.400391 17.9418 0.400391 17.5V15.7222C0.400391 14.5589 0.877159 13.4485 1.71742 12.6337C2.55684 11.8197 3.69023 11.3666 4.86706 11.3666H8.53372C9.71055 11.3666 10.8439 11.8197 11.6834 12.6337C12.5236 13.4485 13.0004 14.5589 13.0004 15.7222V17.5C13.0004 17.9418 12.6422 18.2999 12.2004 18.2999C11.7586 18.2999 11.4004 17.9418 11.4004 17.5V15.7222C11.4004 14.9994 11.1045 14.3011 10.5695 13.7823C10.0337 13.2627 9.30182 12.9666 8.53372 12.9666H4.86706Z" fill="white"/>
</svg>
