<svg width="18" height="19" viewBox="0 0 18 19" fill="none" xmlns="http://www.w3.org/2000/svg">
<path fill-rule="evenodd" clip-rule="evenodd" d="M5.30335 1.32921C6.3063 0.913775 7.38127 0.699951 8.46686 0.699951C9.55246 0.699951 10.6274 0.913775 11.6304 1.32921C12.6333 1.74465 13.5446 2.35357 14.3123 3.1212C15.0799 3.88883 15.6888 4.80014 16.1043 5.8031C16.5197 6.80606 16.7335 7.88102 16.7335 8.96662C16.7335 10.0522 16.5197 11.1272 16.1043 12.1301C15.7912 12.8858 15.3684 13.5895 14.8505 14.2189L17.5659 16.9343C17.8783 17.2467 17.8783 17.7532 17.5659 18.0656C17.2535 18.3781 16.7469 18.3781 16.4345 18.0656L13.7192 15.3503C13.0898 15.8681 12.3861 16.291 11.6304 16.604C10.6274 17.0195 9.55246 17.2333 8.46686 17.2333C7.38127 17.2333 6.3063 17.0195 5.30335 16.604C4.30039 16.1886 3.38908 15.5797 2.62145 14.812C1.85382 14.0444 1.2449 13.1331 0.829458 12.1301C0.414019 11.1272 0.200195 10.0522 0.200195 8.96662C0.200195 7.88102 0.414019 6.80606 0.829458 5.8031C1.2449 4.80014 1.85381 3.88883 2.62145 3.1212C3.38908 2.35357 4.30039 1.74465 5.30335 1.32921ZM8.46686 2.29995C7.59138 2.29995 6.72448 2.47239 5.91564 2.80742C5.1068 3.14245 4.37187 3.63352 3.75282 4.25257C3.13376 4.87163 2.6427 5.60656 2.30767 6.4154C1.97263 7.22423 1.8002 8.09114 1.8002 8.96662C1.8002 9.8421 1.97263 10.709 2.30767 11.5178C2.6427 12.3267 3.13376 13.0616 3.75282 13.6807C4.37187 14.2997 5.1068 14.7908 5.91564 15.1258C6.72448 15.4608 7.59138 15.6333 8.46686 15.6333C9.34234 15.6333 10.2092 15.4608 11.0181 15.1258C11.8269 14.7908 12.5618 14.2997 13.1809 13.6807C13.8 13.0616 14.291 12.3267 14.6261 11.5178C14.9611 10.709 15.1335 9.8421 15.1335 8.96662C15.1335 8.09114 14.9611 7.22423 14.6261 6.4154C14.291 5.60656 13.8 4.87163 13.1809 4.25257C12.5619 3.63352 11.8269 3.14245 11.0181 2.80742C10.2092 2.47239 9.34234 2.29995 8.46686 2.29995Z" fill="white"/>
</svg>
