<svg width="20" height="19" viewBox="0 0 20 19" fill="none" xmlns="http://www.w3.org/2000/svg">
<path fill-rule="evenodd" clip-rule="evenodd" d="M10.0998 0.699951C10.4032 0.699951 10.6804 0.871498 10.8158 1.14295L13.2554 6.03523L18.7134 6.8181C19.0159 6.86149 19.2673 7.07346 19.3612 7.36432C19.455 7.65517 19.375 7.97409 19.1549 8.18613L15.2046 11.9917L16.1357 17.3633C16.1876 17.6631 16.065 17.9665 15.8193 18.146C15.5736 18.3255 15.2473 18.35 14.9775 18.2093L10.1054 15.6684L5.2215 18.2096C4.95169 18.35 4.6256 18.3253 4.38007 18.1458C4.13453 17.9662 4.01204 17.663 4.06398 17.3633L4.99504 11.9917L1.0448 8.18613C0.824691 7.97409 0.744629 7.65517 0.838486 7.36432C0.932342 7.07346 1.18371 6.86149 1.48624 6.8181L6.9443 6.03523L9.3839 1.14295C9.51927 0.871498 9.7965 0.699951 10.0998 0.699951ZM10.0998 3.29264L8.18897 7.12458C8.07176 7.35964 7.84663 7.52218 7.58664 7.55947L3.33368 8.16949L6.41082 11.1339C6.602 11.3181 6.68937 11.5851 6.64403 11.8467L5.91645 16.0444L9.73651 14.0566C9.9682 13.9361 10.2441 13.9362 10.4757 14.057L14.2829 16.0425L13.5556 11.8467C13.5103 11.5851 13.5977 11.3181 13.7888 11.1339L16.866 8.16949L12.613 7.55947C12.353 7.52218 12.1279 7.35964 12.0107 7.12458L10.0998 3.29264Z" fill="white"/>
</svg>
